<svg xmlns="http://www.w3.org/2000/svg" viewBox="0 0 436.21 247.69"><defs><style>.cls-1{isolation:isolate;}.cls-2,.cls-24{fill:#fff;}.cls-3{fill:#f9d6b9;}.cls-4{fill:#fcc190;}.cls-5{fill:#329199;}.cls-6{fill:#333;opacity:0.15;}.cls-7{fill:#64d7c0;}.cls-8{fill:#f1f2f2;}.cls-9{fill:#4460aa;}.cls-10{fill:#18337e;}.cls-11{fill:#95a8dc;}.cls-12{fill:#f5b29c;}.cls-13{fill:#fca353;}.cls-14{fill:#2a2b7c;}.cls-15{fill:#0b1238;}.cls-16,.cls-18{fill:#ecb49f;}.cls-17{fill:#e8852c;}.cls-18,.cls-19,.cls-22{mix-blend-mode:multiply;}.cls-19{fill:#b9b3c0;}.cls-20{fill:#5c75c3;}.cls-21{fill:#2b4a9c;}.cls-22{fill:#cdd8e4;}.cls-23{fill:#2e3054;}.cls-24{opacity:0.3;}.cls-25{fill:#ad5c32;}.cls-26{fill:#ad704d;}.cls-27{fill:#3d4166;}.cls-28{fill:#a0ace9;}</style></defs><g class="cls-1"><g id="Layer_2" data-name="Layer 2"><g id="Layer_4" data-name="Layer 4"><rect class="cls-2" width="436.21" height="247.69"/><path class="cls-3" d="M436.21,41.2c-3,0-62.52.41-97,3.41-35.38,3.09-73.3,11.93-96.37,23C235.79,71,226.94,76.05,227.38,85c.37,7.43,7.75,7,9.69,12.26-9.18.38-20.37,4.71-29,7.77-12.19,4.32-23.08,9.15-33.16,17.65-14.06,11.84-18.69,27.87-15.33,45.88a37.5,37.5,0,0,0,5.86,15c2.45,3.59,7.72,7.65,9.27,11.57,2.76,7-6.49,10.3-10.95,14-7.18,6-16.57,12.74-14.05,23.25,2.06,8.57,10.5,13.14,18.46,14.94.35.08.75.19,1.17.32H436.21Z"/><path class="cls-4" d="M235.64,230c0,1.64-14.88,3-33.22,3s-33.24-1.33-33.24-3,14.89-3,33.24-3S235.64,228.4,235.64,230Z"/><path class="cls-4" d="M405.13,227.54c0,1.64-14.87,3-33.22,3s-33.24-1.33-33.24-3,14.89-3,33.24-3S405.13,225.9,405.13,227.54Z"/><path class="cls-4" d="M272.42,185.91c0,1.45-8.56,2.63-19.12,2.63s-19.11-1.18-19.11-2.63,8.56-2.63,19.11-2.63S272.42,184.46,272.42,185.91Z"/><path class="cls-4" d="M304.16,199.1c0,1.45-8.56,2.63-19.12,2.63s-19.11-1.18-19.11-2.63,8.56-2.63,19.11-2.63S304.16,197.65,304.16,199.1Z"/><path class="cls-4" d="M386.53,180.79c0,2.22-20.15,4-45,4s-45-1.81-45-4,20.16-4,45-4S386.53,178.57,386.53,180.79Z"/><path class="cls-5" d="M320.05,49.86q-6.21,2.45-9.47,3.84c-.73.33-1.32.57-1.76.74a9.49,9.49,0,0,1-1.74.44,4.66,4.66,0,0,1-1.9,0h0a4.75,4.75,0,0,1-1.72-.8,10.18,10.18,0,0,1-1.38-1.14c-.33-.35-.76-.82-1.28-1.42q-1.86-2.13-6.92-7.52a8.6,8.6,0,0,1-1.34-1.8l-2.93,13.08a2.71,2.71,0,0,0,2.05,3.22l24.24,5.42a2.58,2.58,0,0,0,2-.35,2.65,2.65,0,0,0,1.19-1.69L322,48.79a9.28,9.28,0,0,1-2,1.07Z"/><path class="cls-6" d="M293.47,45.69q5.05,5.39,6.92,7.51c.52.6.95,1.07,1.28,1.42a10.18,10.18,0,0,0,1.38,1.14,5,5,0,0,0,1.72.81h0a4.71,4.71,0,0,0,1.91,0,9.58,9.58,0,0,0,1.73-.44c.45-.17,1-.41,1.76-.74q3.26-1.39,9.48-3.84a9.17,9.17,0,0,0,1.86-1,4.2,4.2,0,0,0,.26-.78,2.71,2.71,0,0,0-2-3.22l-24.24-5.43a2.42,2.42,0,0,0-2.15.42,3.44,3.44,0,0,0-1.16,2,2.6,2.6,0,0,0,0,.39A9.21,9.21,0,0,0,293.47,45.69Z"/><path class="cls-7" d="M293.84,44q5.07,5.38,6.92,7.51c.52.6.95,1.08,1.28,1.42a8.88,8.88,0,0,0,1.38,1.14,5,5,0,0,0,1.72.81h0a5.1,5.1,0,0,0,1.91,0,9.5,9.5,0,0,0,1.73-.45c.45-.17,1-.41,1.76-.73q3.26-1.41,9.48-3.85a9.17,9.17,0,0,0,1.86-1,4.36,4.36,0,0,0,.26-.77,2.58,2.58,0,0,0-.36-2,2.64,2.64,0,0,0-1.68-1.19l-24.24-5.42a2.42,2.42,0,0,0-2.15.42,3.41,3.41,0,0,0-1.16,2,2.57,2.57,0,0,0-.05.4A9.14,9.14,0,0,0,293.84,44Z"/><polygon class="cls-8" points="363.17 178.69 318.42 178.69 326.23 163.23 357.25 163.23 363.17 178.69"/><path class="cls-2" d="M317,177.58h48.18a2.18,2.18,0,0,1,2.18,2.18v1.56H314.77v-1.56A2.17,2.17,0,0,1,317,177.58Z"/><path class="cls-2" d="M406.87,73.81v88.45a4.11,4.11,0,0,1-4.13,4.11h-121a4.13,4.13,0,0,1-4.13-4.11h0V73.81a4.15,4.15,0,0,1,4.14-4.14h121A4.14,4.14,0,0,1,406.87,73.81Z"/><path class="cls-9" d="M406.87,73.81v74H277.6v-74a4.15,4.15,0,0,1,4.14-4.14h121A4.14,4.14,0,0,1,406.87,73.81Z"/><circle class="cls-9" cx="341.25" cy="156.92" r="2.85"/><rect class="cls-10" x="309.08" y="49.44" width="66.32" height="118.72" transform="translate(451.04 -233.43) rotate(90)"/><rect class="cls-11" x="293.61" y="81.11" width="31.96" height="1.81"/><rect class="cls-11" x="293.61" y="84.6" width="19.51" height="1.7"/><rect class="cls-11" x="320.99" y="84.6" width="61.39" height="1.7"/><rect class="cls-11" x="303.76" y="88.1" width="26.83" height="1.79"/><rect class="cls-11" x="312.37" y="91.59" width="31.96" height="1.81"/><rect class="cls-11" x="346.42" y="91.59" width="26.79" height="2"/><rect class="cls-11" x="312.32" y="95.08" width="24.69" height="1.7"/><rect class="cls-11" x="339.37" y="95.08" width="50.93" height="1.88"/><rect class="cls-11" x="293.61" y="99.8" width="31.96" height="1.81"/><rect class="cls-11" x="293.61" y="103.29" width="19.51" height="1.7"/><rect class="cls-11" x="320.99" y="103.29" width="61.39" height="1.7"/><rect class="cls-11" x="303.76" y="106.78" width="26.83" height="1.79"/><rect class="cls-11" x="312.37" y="110.29" width="31.96" height="1.81"/><rect class="cls-11" x="346.42" y="110.29" width="26.79" height="2"/><rect class="cls-11" x="312.32" y="113.78" width="24.69" height="1.7"/><rect class="cls-11" x="339.37" y="113.78" width="50.93" height="1.88"/><rect class="cls-11" x="293.61" y="118.5" width="31.96" height="1.81"/><rect class="cls-11" x="293.61" y="121.99" width="19.51" height="1.7"/><rect class="cls-11" x="320.99" y="121.99" width="61.39" height="1.7"/><rect class="cls-11" x="303.76" y="125.48" width="26.83" height="1.79"/><rect class="cls-11" x="312.37" y="128.97" width="31.96" height="1.81"/><rect class="cls-11" x="346.42" y="128.97" width="26.79" height="2"/><rect class="cls-11" x="312.32" y="132.47" width="24.69" height="1.7"/><rect class="cls-11" x="339.37" y="132.47" width="50.93" height="1.88"/><path class="cls-12" d="M261.91,125.61c.4-1.73,4.62-5.77.84-6.43-1.69-.3-1,1.81-1.36,3s-1.27,2.32.09,3.34Z"/><path class="cls-13" d="M262.7,123.8s-3.37,8-5.05,9.47-4.63,3.19-7.09,4.89c-.2-1.63-1-2.33-2.05-3.54,2.34-1.7,4.85-3.55,6.56-4.63s2.69-2.69,3.72-3.78a15.62,15.62,0,0,0,2.26-3.57A14,14,0,0,1,262.7,123.8Z"/><path class="cls-14" d="M252.33,183s-4.09,2.54-3,3.91C250.34,188.16,252.88,185.47,252.33,183Z"/><path class="cls-12" d="M252.49,130.37s.59,2.61-.37,4.23c0,0,3.48.19,4.57-.85l-1-2.34s1.43.47,1.88-.25.48-4.16-.44-5.9-4-3.08-5.24-.14A5.35,5.35,0,0,0,252.49,130.37Z"/><path class="cls-13" d="M258.78,134.36a2.44,2.44,0,0,0-1.59-1.38,12.82,12.82,0,0,0-4.09-.39,9.86,9.86,0,0,0-4.54,1.93,7.82,7.82,0,0,0-1.24,5.91c.74,3.26,1.46,5.07,1.3,6.21s-.28,4.37-.8,5.6c0,0,11.53,1.07,9.83-2.21s.53-4.5,1.56-8.46a10.58,10.58,0,0,0-.26-6.87A3.59,3.59,0,0,0,258.78,134.36Z"/><path class="cls-5" d="M292.14,103.31q-5.68,5.58-8.6,8.62c-.65.7-1.19,1.24-1.6,1.63a11.8,11.8,0,0,1-1.69,1.3,6.05,6.05,0,0,1-2.09.88h0a5.69,5.69,0,0,1-2.27-.08,11.79,11.79,0,0,1-2-.61c-.53-.23-1.21-.55-2.07-1q-3-1.47-11.08-5a10.6,10.6,0,0,1-2.31-1.35l2.87,15.71a3.08,3.08,0,0,0,1.33,2.06A3.14,3.14,0,0,0,265,126l29.13-5.32a3.06,3.06,0,0,0,2.06-1.34,3.11,3.11,0,0,0,.53-2.4l-2.87-15.71a11.13,11.13,0,0,1-1.67,2.08Z"/><path class="cls-6" d="M261,111.09q8.06,3.55,11.08,5,1.29.63,2.07,1a11,11,0,0,0,2,.61,5.9,5.9,0,0,0,2.27.09h0a5.87,5.87,0,0,0,2.09-.88,12,12,0,0,0,1.69-1.29c.41-.4.95-.94,1.6-1.63q2.91-3.06,8.6-8.63a10.76,10.76,0,0,0,1.59-2,4.49,4.49,0,0,0-.08-1,3.22,3.22,0,0,0-3.74-2.59l-29.13,5.31a2.87,2.87,0,0,0-2.15,1.46,4,4,0,0,0-.36,2.72,3.81,3.81,0,0,0,.13.45A10.58,10.58,0,0,0,261,111.09Z"/><path class="cls-7" d="M260.67,109.1q8.06,3.56,11.08,5,1.28.62,2.07,1a11.52,11.52,0,0,0,2,.61,5.9,5.9,0,0,0,2.27.09h0a5.79,5.79,0,0,0,2.09-.88,12.17,12.17,0,0,0,1.7-1.29c.41-.4.94-.94,1.59-1.64q2.93-3,8.61-8.62a11.2,11.2,0,0,0,1.59-2,5.4,5.4,0,0,0-.08-1,3.24,3.24,0,0,0-3.74-2.58l-29.13,5.31a2.89,2.89,0,0,0-2.16,1.46,4,4,0,0,0-.35,2.72,2.54,2.54,0,0,0,.13.45A10.58,10.58,0,0,0,260.67,109.1Z"/><path class="cls-12" d="M271.35,127.57c.65-1.65,5.4-5,1.76-6.24-1.63-.54-1.28,1.65-1.78,2.75s-1.59,2.11-.38,3.32Z"/><path class="cls-13" d="M272.4,125.89s-4.49,7.43-6.36,8.66-5,2.49-7.71,3.82c0-1.64-.68-2.45-1.52-3.8,2.55-1.34,5.3-2.81,7.15-3.63s3-2.28,4.23-3.22a15.67,15.67,0,0,0,2.74-3.21A14.34,14.34,0,0,1,272.4,125.89Z"/><path class="cls-12" d="M248,150.11a21,21,0,0,0,.13,10.36c.89,3.75-.7,5.93-.79,8.34s1.41,8,1.58,11-.88,7.14,0,7.24,1.13.54,1.65-.14a19.45,19.45,0,0,0,.09-3.18,95.67,95.67,0,0,1,.82-10.86,54.11,54.11,0,0,0,.7-10.85,45,45,0,0,1,.53-6.54S250.19,149.51,248,150.11Z"/><path class="cls-14" d="M248.7,185.59s.47.95,2-.11c0,0,.19,2-1.11,1.91S248.15,186.44,248.7,185.59Z"/><path class="cls-14" d="M259.77,184s-4.58,1.48-3.84,3.08C256.59,188.51,259.71,186.52,259.77,184Z"/><path class="cls-12" d="M254.12,150.35a21.09,21.09,0,0,0,.38,10.36c1,3.73-.56,5.94-.59,8.36s1.6,8,1.85,10.91-.71,7.16.17,7.24,1.14.51,1.64-.18a18.86,18.86,0,0,0,0-3.18,96.51,96.51,0,0,1,.56-10.87,54.56,54.56,0,0,0,.44-10.87,43.84,43.84,0,0,1,.37-6.55S256.31,149.7,254.12,150.35Z"/><path class="cls-14" d="M255.68,185.8s.49.95,2-.15c0,0,.24,2-1.06,1.93S255.15,186.67,255.68,185.8Z"/><path class="cls-15" d="M255.19,122.31c.23.06.46.13.71.22.43.16.2.13.67.08s.64-.3,1-.22c2.09.43.33,2.82-.46,3.49s-1.13.53-1.18,1.75a5.46,5.46,0,0,0,.81,2.72c1,1.71,2,3.32,1,5.35-.48.94-1.59,2.27-2.72,1.46,1.57,2.31-1.42,3.6-3.35,3.72s-3.85-1.7-2.78-3.57c-1.75.44-1.94-1.68-1.73-2.9s1.11-2.39,1.6-3.62.1-2.34.07-3.65a4.61,4.61,0,0,1,3.19-4.58A4.44,4.44,0,0,1,255.19,122.31Z"/><path class="cls-10" d="M259.23,160.84c-.7,3.19-.45,6.34-.64,9.58-3.52,1.27-7.67,0-11.23,0,.35-5.91-1.35-11.92-1-17.93.08-1.59,2.19-4.8,2.19-4.8a22,22,0,0,0,3.85.69,29.12,29.12,0,0,0,4.8-.28,42.25,42.25,0,0,1,2.6,6.3A15.36,15.36,0,0,1,259.23,160.84Z"/><path class="cls-5" d="M357,97.17q-5.71,2.42-8.71,3.8c-.67.32-1.21.56-1.62.73a8.83,8.83,0,0,1-1.6.45,4.65,4.65,0,0,1-1.77,0h0a4.54,4.54,0,0,1-1.62-.71,8.94,8.94,0,0,1-1.31-1c-.31-.31-.72-.74-1.22-1.28q-1.79-1.94-6.61-6.82a8.39,8.39,0,0,1-1.29-1.64l-2.4,12.22a2.5,2.5,0,0,0,2,2.94l22.65,4.46a2.52,2.52,0,0,0,2.95-2l2.4-12.22a8.82,8.82,0,0,1-1.8,1Z"/><path class="cls-6" d="M332.16,93.93q4.83,4.89,6.61,6.82c.5.54.91,1,1.22,1.28a8.94,8.94,0,0,0,1.31,1,4.54,4.54,0,0,0,1.62.71h0a4.65,4.65,0,0,0,1.77,0,8.83,8.83,0,0,0,1.6-.45c.41-.17.95-.41,1.62-.73q3-1.38,8.71-3.8a8.84,8.84,0,0,0,1.71-1,3.83,3.83,0,0,0,.22-.73,2.36,2.36,0,0,0-.39-1.89,2.43,2.43,0,0,0-1.59-1.06L334,89.64a2.26,2.26,0,0,0-2,.45,3.12,3.12,0,0,0-1,1.87,1.5,1.5,0,0,0,0,.37A8.29,8.29,0,0,0,332.16,93.93Z"/><path class="cls-7" d="M332.47,92.38q4.83,4.89,6.6,6.82.75.81,1.23,1.29a8.57,8.57,0,0,0,1.31,1,4.39,4.39,0,0,0,1.62.71h0a4.4,4.4,0,0,0,1.76,0,8.6,8.6,0,0,0,1.6-.45c.42-.17,1-.41,1.63-.73q3-1.38,8.7-3.8a8.7,8.7,0,0,0,1.72-1,4.71,4.71,0,0,0,.22-.73,2.54,2.54,0,0,0-2-3L334.25,88.1a2.22,2.22,0,0,0-2,.44,3.17,3.17,0,0,0-1,1.87c0,.12,0,.24,0,.37A8.35,8.35,0,0,0,332.47,92.38Z"/><path class="cls-16" d="M352.32,48.1c-1.21-.3-4-2.5-4.22-2.26s.78.89.6,1.08-2.58-1.35-3.05-1.08,1.55,2.24,2.67,2.86c.88.48,5,.41,4.8,1.84Z"/><path class="cls-17" d="M351.21,47.4,350,49.29l7,3.89s2.76.25,4.85.19a9.57,9.57,0,0,0,2.09-.19c1.6-.44,2.61-2.39,1.19-3.69s-3,.41-4.46.55a21.93,21.93,0,0,1-3.52,0Z"/><path class="cls-15" d="M370.32,63.52c-4.6-2.92-16.75,4-17.76,4.85-.78.62.94,10.09,1.8,14.58.27,1.41.46,2.34.46,2.34s-1.76,1.77-1.37,2.74c0,0,4.47-2.91,3.62-4.13-.17-.14-.07-.43.85-.68-1.06-6.77.81-10.36-1.37-12.39,0,0,11.72-.3,13.26-.89S374.92,66.44,370.32,63.52Z"/><path class="cls-15" d="M371.36,64.42S354.2,57,353.09,57.09c-1.57.18-10.86,10.9-10.86,10.9a21.11,21.11,0,0,0-3.75,1.82l5.36.06.45-1.33s1.11.7,1.38.44c.79-.78,7.37-5.58,7.35-7l13.52,6.52S371.43,68.37,371.36,64.42Z"/><path class="cls-16" d="M368.14,45.7c0,1.06-.36,3.22.3,4.1s3.74,2.08,2.6,3.41a6,6,0,0,1-3,1.24,9.29,9.29,0,0,1-5.38-.21,1.84,1.84,0,0,1-1.19-2.14c.16-.6.65-.86,1-1.35s.43-1.33,1.11-1.64c.45-.2,1.16,0,1.52-.24s.47-1.17.47-1.59C365.52,45.9,367.43,44.88,368.14,45.7Z"/><path class="cls-18" d="M368.06,47.27a8.25,8.25,0,0,1,0-1.19c-.87-.37-2.28.51-2.59,1.71,0,.1,0,.2-.05.3a2.17,2.17,0,0,0,0,.26l-.31.51a1.27,1.27,0,0,0,1.06.8C366.93,49.7,367.72,48,368.06,47.27Z"/><path class="cls-16" d="M365.19,43s-2,3.59-.16,4.9,3.33-.43,4.35-1.71c1.14-1.45,1.27-2-.91-3.57A2.16,2.16,0,0,0,365.19,43Z"/><path class="cls-15" d="M364.25,42.7c.38-1.22,1.6-1.58,2.82-1.64a2.46,2.46,0,0,1,1.64.39,3.71,3.71,0,0,1,1.05,1.82Z"/><path class="cls-15" d="M369.91,41.45c-2.47-2.33-4.7.44-4.7.44a1.15,1.15,0,0,0-.14.32c-.3,1.06,1.05,1.73,1.91,1.49-.34.09.41.85.49.9.46.28,1,.1,1.4.26l.1,0,.12.1c.35.41-.35,1.29-.36,1.85a2.14,2.14,0,0,0,1.63-1.51A3,3,0,0,0,369.91,41.45Z"/><path class="cls-16" d="M358.61,45.9c-1.14-.61-3.41-3.52-3.67-3.34s.56,1.1.33,1.24-2.26-2-2.8-1.86,1,2.65,2,3.56c.76.7,4.95,1.67,4.36,3Z"/><path class="cls-15" d="M372.32,63.16s1.86,6.85-4.14,7l-3.44-7.44Z"/><path class="cls-13" d="M366.1,65.56c-2.62-1.4-1.93-2.5-2.45-5.09s-1.24-3.7-2.13-7.18,2-4.18,2-4.18-.5,1.11,1.35,1.54a4.83,4.83,0,0,0,3.58-.85s1.41.76,1.84,1.07c1.57,1.09,2,3.47,2.26,5.24.48,3.44.59,8.84.06,9.74S368.72,67,366.1,65.56Z"/><path class="cls-2" d="M366.77,47a2.55,2.55,0,0,1-2.16-1.07s-.2,1.11.49,1.42S366.77,47,366.77,47Z"/><path class="cls-17" d="M358.36,45.33l-1.8,1.44,5.51,6.17s2.61,1.17,4.68,1.82a10.37,10.37,0,0,0,2.12.51c1.72.11,3.36-1.46,2.41-3.21s-3-.6-4.56-1a23.52,23.52,0,0,1-3.45-1.18Z"/><path class="cls-12" d="M381.37,127.29c-2.09-.38-5.07,1.87-5.9,3.76a17.41,17.41,0,0,1-2.58,3.71l1.27,1.11s-.11,4.54,2.85,5.18c1.89.41,5-.91,6.6-2.83,2.18-2.67,1.7-3.83,1.52-5.86-.16-1.82-1.68-4.32-3.35-5A1.91,1.91,0,0,0,381.37,127.29Z"/><path class="cls-12" d="M382.55,134.89c-.48,2.6-3,4.7-4.84,6.57a6.44,6.44,0,0,1-1.69,4.92c-.53.6,4.76-1,5.25-1.1,1.28-.33,3.4-.4,4.39-1.33s1.37-.83.56-1.75c-1.22-1.39-2.5-4-3.26-8.11Z"/><path class="cls-19" d="M381.66,138.54a6.65,6.65,0,0,1-3.35,2.5,6,6,0,0,1-.52,2.41A16.28,16.28,0,0,0,381.66,138.54Z"/><path class="cls-20" d="M401.71,223.68l.48,2.2-7.6,1.55S394,226,396.91,225s2.37-1.78,2.37-1.78l-.55-3.24,2.71-1.11Z"/><path class="cls-10" d="M378.81,181.23s6,15.39,9.31,20.31c3.88,5.76,10,18.52,10.1,21.85l3.58-.85S402,211.7,399.12,207s-3.74-9.31-5.17-14.4S391,175.13,391,175.13,375.57,169.66,378.81,181.23Z"/><path class="cls-20" d="M365.86,224.13l-.2,2.14-7.46-1.55s-.1-1.49,2.87-1.31,2.7-.68,2.7-.68l.46-3.09,2.82.05Z"/><path class="cls-21" d="M376.74,171.1s-7.42,26.08-7.62,26.49-6.6,24.39-6.6,24.39,2.91,1.06,4.73.54a207.35,207.35,0,0,0,8-21,116,116,0,0,0,8.59-13.29c2.61-4.42,8.62-7.38,7.84-17.43S377.58,165.25,376.74,171.1Z"/><path class="cls-22" d="M381,164.41c.86-3.7-4.65-6.94-8.09-7.81a34,34,0,0,0,.64,7.24C377.28,165.35,380.61,166.12,381,164.41Z"/><path class="cls-13" d="M376.28,146a22.05,22.05,0,0,0-3,8.36,25.77,25.77,0,0,0,.75,8.47c.58,2.65.34,5.64.48,8.36.1,1.8.48,3.58.45,5.38a11.33,11.33,0,0,1,4.62-.78c2.84-.13,5.67-.35,8.52-.36.91,0,3.38.64,3.57-.57.14-.85,0-1.76.07-2.61s.22-1.54.3-2.33c.12-1.06.49-2.2-.06-3.19a7.5,7.5,0,0,1-1.08-2.83c-.46-3.21.09-6.74.44-9.94.6-5.59-1.08-8.22-3.19-10.52s-4.83-1.14-6.72.34S378.75,145.37,376.28,146Z"/><path class="cls-5" d="M399.73,158.74q-6.89,3.85-10.47,6-1.2.74-1.95,1.14a10.63,10.63,0,0,1-2,.8,5.64,5.64,0,0,1-2.22.3h0a5.77,5.77,0,0,1-2.14-.68,11,11,0,0,1-1.8-1.11c-.44-.35-1-.84-1.73-1.46q-2.51-2.19-9.28-7.68a10.77,10.77,0,0,1-1.86-1.9l-1.34,15.76a3.2,3.2,0,0,0,2.91,3.45l29.22,2.48a3.19,3.19,0,0,0,3.45-2.9l1.34-15.77a10.63,10.63,0,0,1-2.13,1.56Z"/><path class="cls-6" d="M368,158.09q6.76,5.5,9.28,7.69c.71.62,1.28,1.11,1.73,1.46a11.34,11.34,0,0,0,1.79,1.11,5.66,5.66,0,0,0,2.15.67h0a5.67,5.67,0,0,0,2.23-.3,10.93,10.93,0,0,0,2-.8c.49-.27,1.14-.65,1.94-1.14q3.59-2.16,10.47-6a11.44,11.44,0,0,0,2-1.46,5.14,5.14,0,0,0,.18-.95,3.21,3.21,0,0,0-2.91-3.45l-29.22-2.49a2.83,2.83,0,0,0-2.44.84,4,4,0,0,0-1.05,2.51,3.53,3.53,0,0,0,0,.46A10.33,10.33,0,0,0,368,158.09Z"/><path class="cls-7" d="M368.14,156.1q6.76,5.49,9.28,7.68c.71.63,1.28,1.11,1.73,1.46a11.34,11.34,0,0,0,1.79,1.11,5.69,5.69,0,0,0,2.15.68h0a5.67,5.67,0,0,0,2.23-.3,11.8,11.8,0,0,0,2-.79c.49-.27,1.14-.66,1.94-1.15q3.58-2.16,10.47-6a10.51,10.51,0,0,0,2-1.46,5.14,5.14,0,0,0,.18-.95,3.21,3.21,0,0,0-2.91-3.45l-29.22-2.48a2.83,2.83,0,0,0-2.44.83,4,4,0,0,0-1.05,2.51,3.53,3.53,0,0,0,0,.46A10.72,10.72,0,0,0,368.14,156.1Z"/><path class="cls-5" d="M398.72,167.26q-7.53,2.36-11.48,3.73c-.88.32-1.6.56-2.14.73a11.12,11.12,0,0,1-2.07.37,5.81,5.81,0,0,1-2.25-.16h0a5.72,5.72,0,0,1-2-1.1,10.42,10.42,0,0,1-1.53-1.46c-.36-.43-.83-1-1.39-1.78q-2-2.66-7.52-9.42a10.89,10.89,0,0,1-1.43-2.24l-4.54,15.15a3.19,3.19,0,0,0,2.14,4l28.1,8.42a3,3,0,0,0,2.42-.25,3,3,0,0,0,1.55-1.89l4.54-15.15a10.8,10.8,0,0,1-2.41,1.09Z"/><path class="cls-6" d="M367.77,160.12q5.5,6.76,7.51,9.42c.56.76,1,1.35,1.39,1.78a10.42,10.42,0,0,0,1.53,1.46,5.81,5.81,0,0,0,2,1.1h0a5.76,5.76,0,0,0,2.24.16,11.4,11.4,0,0,0,2.08-.37c.54-.17,1.25-.41,2.14-.73q3.94-1.37,11.47-3.73a11.62,11.62,0,0,0,2.29-1,4.92,4.92,0,0,0,.37-.89,3.21,3.21,0,0,0-2.14-4l-28.1-8.42a2.84,2.84,0,0,0-2.56.31,4,4,0,0,0-1.53,2.24,3.41,3.41,0,0,0-.1.46A10.73,10.73,0,0,0,367.77,160.12Z"/><path class="cls-7" d="M368.34,158.2q5.51,6.77,7.52,9.42c.56.76,1,1.35,1.39,1.78a11,11,0,0,0,1.53,1.46,5.72,5.72,0,0,0,2,1.1h0a5.78,5.78,0,0,0,2.24.16,11,11,0,0,0,2.08-.38c.54-.16,1.26-.4,2.14-.72q3.94-1.36,11.48-3.73a11.27,11.27,0,0,0,2.28-1,4.3,4.3,0,0,0,.37-.89,3,3,0,0,0-.26-2.43,3,3,0,0,0-1.87-1.54L371.13,153a2.84,2.84,0,0,0-2.56.31,4,4,0,0,0-1.54,2.24,3.4,3.4,0,0,0-.09.46A10.68,10.68,0,0,0,368.34,158.2Z"/><path class="cls-12" d="M391.11,147.88c-1.58-2.59-3.59-5.3-6.26-2.33s.91,8.32,2.37,12.75.86,5.42,0,8.24-3.41,9-4.67,10.11-5.76,3.52-3.32,5.18a4.54,4.54,0,0,0,3.22.64,25.81,25.81,0,0,1,2-3.59c1.61-2.28,3.51-4.22,5.19-6.43a34,34,0,0,0,5.09-8.32S393.67,152.1,391.11,147.88Z"/><path class="cls-17" d="M391.11,147.88c-1.58-2.59-3.59-5.3-6.26-2.33s.91,8.32,2.37,12.75.86,5.42,0,8.24a33.21,33.21,0,0,1-2.53,5.4c-.34.63-2.31,3.65-2.33,4.36,0,1.13,2.94,1.64,3.67,2.18.95-.63,2.14-2.56,2.86-3.46.9-1.12,1.46-2.39,2.33-3.55a28,28,0,0,0,3.53-7.34S393.67,152.1,391.11,147.88Z"/><path class="cls-15" d="M379.57,131.81c-.77-.37-1.58,0-2.38,0a4.63,4.63,0,0,1-2.67-1.05c-.48-.4-1.15-1.35-.69-2a1.24,1.24,0,0,1,1.72,0c-.9-1.63.78-2.78,2.25-2.89a13.68,13.68,0,0,1,2.55.18c1.58.16,3.19,1.6,4.3,2.63a5,5,0,0,1,1.43,3.36c.13,1.45,0,4-1.38,4.93-.48.31-4.57.05-4.27-.64s1.35-1.34,1.17-2.28a1,1,0,0,0-1.64-.44c-.36-.36-.23-1.17-.47-1.67Z"/><path class="cls-16" d="M294.7,140.57a2.17,2.17,0,0,1-.34-.55c-.6-1.25.9-2.72,1.58-3.56a12.8,12.8,0,0,0,1.85-3.07c.24-.53.49-1.91,1-2.17.28.25-.29,2.06.59.93.67-.86,1.89-2.43,2.24-2.32s-.91,1.41-.73,1.68,1.68-1.49,1.88-1.28-1.33,1.61-1.15,1.83c.3.37,1.12-.95,1.39-.74s-.76,1-1,1.55c.51.19,1.23-1,1.31-.39s-1.81,1.35-2.37,1.85a8.93,8.93,0,0,0-2.33,3.36C298.21,138.74,296.08,142.18,294.7,140.57Z"/><path class="cls-12" d="M268.68,162.05a8.68,8.68,0,0,1-1.53,3.42c.05-.58.2-.43-.3-1.23s-2.81,2.91-3.45,2.93,1.89-4.87,3.25-5.75Z"/><path class="cls-13" d="M274.48,143.27c-2.11-.59-4.8,8.84-5.21,10.25-.84,2.89-2.64,5.83-3.23,8.65a20.24,20.24,0,0,1,2.63.67c1.49-3.4,2.6-4.7,3.42-7.27a40.57,40.57,0,0,1,2.53-5.56Z"/><path class="cls-12" d="M278,137.9c1.36,1.6,0,5.37-.67,7.21a7.78,7.78,0,0,1,3.43,0c.15-2.26,0-5.38.51-7Z"/><path class="cls-23" d="M289,199.25c.92-.06,5.79-1.34,4-2.4-1.2-.7-3.69-.26-4.76.5Z"/><path class="cls-12" d="M287.51,191.69a2,2,0,0,0-1.19.56c-1.66,1.36-.11,4.15.69,5.54s4.36,1.86,4.32-.54c0-.47-2-.09-2.23-.06C289.67,197.11,289.57,191.6,287.51,191.69Z"/><path class="cls-12" d="M276,200.12c1.52-.38,4.36-.63,5.13-2.17a4.35,4.35,0,0,0-3.06.05,32.64,32.64,0,0,0-.47-3.45c-.11-1.31-.19-2.62-.21-3.93C277.32,187.84,272.67,191.76,276,200.12Z"/><path class="cls-13" d="M284.2,143.5a2.2,2.2,0,0,1,.36,0c1.11.23,1.42.75,1.37,1.88-.19,3.75-1.21,7.61-1.75,11.3-.31,2.12,1.09,3.57.05,5.47a6.39,6.39,0,0,1-4.39,2.5,6.79,6.79,0,0,1-5.09-1.55c-1.67-1.51-1.44-3.86-1.44-5.92,0-3.5-.68-6.62-.19-10.13.19-1.38,0-3,1.09-4,1.68-1.55,4.81-1.15,6.79-.49.63.21,1.2.66,1.85.81A6.78,6.78,0,0,0,284.2,143.5Z"/><path class="cls-10" d="M284.32,157.5l5.93,38.74-4.21.23-7.86-24.92.62,25.39-4.21.78s-2.9-17.84-2.8-23.52-.56-13.48,1.74-16.86C273.53,157.34,281.13,159.4,284.32,157.5Z"/><path class="cls-12" d="M278.86,139c.53,2.54,4.48,1.66,5.16.06a6.19,6.19,0,0,0-.22-5.44c-.75-2.44-1.43-2.87-3.22-3C280.58,130.62,277.28,131.47,278.86,139Z"/><path class="cls-23" d="M275.64,199.08a18.14,18.14,0,0,0,2.13-.22c.31-.07,1.3-.79.49-.88.72-.61,3-.41,3.72.12.57.41-6,2-6,2C275.89,199.78,275.76,199.43,275.64,199.08Z"/><path class="cls-15" d="M282.87,133c-.86,1.71-1.28,7.64-4.24,6.66-2.25-.74-1.84-6.49-.84-8.2.82-1.41,5.59-2,6.5-.5C285.44,132.84,283.23,132.25,282.87,133Z"/><path class="cls-13" d="M299.52,135.88c.1,1.54-5.51,8-5.51,8s-7.05,5.11-9.83,6.5a11.76,11.76,0,0,0-1.48-5.58c2.66-1.39,9.48-4.26,9.48-4.26s4.28-5,5.22-6.21C297.81,134.58,299.52,135.88,299.52,135.88Z"/><path class="cls-23" d="M291.64,197c-1.08,1.33-2.91,1.08-4.36,1-.63,2.34,2.69,1.16,3.71.43Z"/><path class="cls-24" d="M418.21,137.79a7.75,7.75,0,0,1-5.72-7.87c.12-2,1-1.73,2.2-2.93s.58-1.74-.5-3.15c-2-2.57-3.83-5.47-3-8.9.76-3.24,4.6-3.19,3.76-6.58-1.1-4.36-.66-8.7-.16-13.18.3-2.61,1.25-9,4.86-9.11,3.4-.09,3.23,6.25,3.3,8.4.07,2-.36,3.39,1.18,4.51,2,1.45,4.24,1.93,4.65,4.81.49,3.41-3.28,4.84-3.47,7.86-.15,2.51,3.44,4,4.71,6,2.4,3.87-2.27,3.9-2.66,7a1.35,1.35,0,0,1-.25.51c1.31,1,3.11,1.51,3.86,3.1a4.66,4.66,0,0,1-1,5.17c-2.57,2.86-7.4,5.39-11.26,4.47Z"/><path class="cls-13" d="M418.21,137.79a7.75,7.75,0,0,1-5.72-7.87c.12-2,1-1.73,2.2-2.93s.58-1.74-.5-3.15c-2-2.57-3.83-5.47-3-8.9.76-3.24,4.6-3.19,3.76-6.58-1.1-4.36-.66-8.7-.16-13.18.3-2.61,1.25-9,4.86-9.11,3.4-.09,3.23,6.25,3.3,8.4.07,2-.36,3.39,1.18,4.51,2,1.45,4.24,1.93,4.65,4.81.49,3.41-3.28,4.84-3.47,7.86-.15,2.51,3.44,4,4.71,6,2.4,3.87-2.27,3.9-2.66,7a1.35,1.35,0,0,1-.25.51c1.31,1,3.11,1.51,3.86,3.1a4.66,4.66,0,0,1-1,5.17c-2.57,2.86-7.4,5.39-11.26,4.47Z"/><path class="cls-4" d="M426.29,160.26c0,.28-2.85.51-6.37.51s-6.36-.23-6.36-.51,2.85-.52,6.36-.52S426.29,160,426.29,160.26Z"/><rect class="cls-2" x="419.53" y="86.07" width="0.17" height="72.3"/><path class="cls-2" d="M419.68,112.26l9-9-.06-.19-9,9Z"/><path class="cls-2" d="M419.68,109.52l8-8-.12-.12-8,8Z"/><path class="cls-2" d="M419.68,121.94l7.26-7.26-.13-.12-7.25,7.26Z"/><path class="cls-2" d="M419.56,97.52l.12.12,3.24-3.24v-.24Z"/><path class="cls-2" d="M419.56,123.47l.12.12,8.14-8.14-.14-.11Z"/><polygon class="cls-2" points="428.78 127.58 419.56 136.8 419.68 136.93 428.9 127.7 428.78 127.58"/><rect class="cls-2" x="417.71" y="122.12" width="13.05" height="0.17" transform="translate(37.84 335.77) rotate(-45)"/><path class="cls-2" d="M419.77,116.71l-5.55-5.55-.12.12,5.55,5.55Z"/><path class="cls-2" d="M419.77,118.72l-6.6-6.61-.14.11,6.62,6.62Z"/><path class="cls-2" d="M419.77,131.14l-4.65-4.65a1.3,1.3,0,0,1-.1.15l4.63,4.62Z"/><path class="cls-2" d="M419.56,134.06l.12.12,8.38-8.38-.15-.08Z"/><path class="cls-2" d="M415.7,90.41l3.95,3.94.12-.12-4-4Z"/><path class="cls-2" d="M419.77,103.73l-5.34-5.34c0,.08,0,.15,0,.23l5.24,5.23Z"/><path class="cls-2" d="M419.77,105.56l-5.47-5.47a1.93,1.93,0,0,1,0,.24l5.36,5.35Z"/><rect class="cls-13" x="419.58" y="138.04" width="0.28" height="20.33"/><path class="cls-13" d="M420.71,159.89s-5-17.86-8.17-10.06S420.71,159.89,420.71,159.89Z"/><path class="cls-13" d="M420.57,160.62l0-.54c0-.57-.75-14.08,2.82-17.86a2.85,2.85,0,0,1,2.49-1,2,2,0,0,1,1.72,1.16c1.92,4-6.36,17.19-6.71,17.74Zm4.92-19a2.53,2.53,0,0,0-1.88.87c-3.07,3.25-2.85,14.41-2.75,17,1.49-2.43,8-13.5,6.4-16.93a1.69,1.69,0,0,0-1.45-1Z"/><path class="cls-25" d="M214.59,203.82c-.36-2.49-4.39-22.28-4.39-22.28-1.36-5-11.83-8.6-11.41-.47s12.31,21.77,8.26,24.66c-5.5,3.93-10.42,13.69-14.2,16.84a5.84,5.84,0,0,0-1.12,1.18l-1.39,1.39,3.84,5s.9-1.08-.35-3.14a1.54,1.54,0,0,1-.24-.93C193.76,226.05,215,206.31,214.59,203.82Z"/><path class="cls-26" d="M201.25,148.66a36.8,36.8,0,0,0-3.65,2.68s4.46-4,4.25-8.1,1.63-2.68,3.51-1.45c1.11.73.83,3.51,1.21,4.82.29,1,1.14,2.27,1,3.35-.32,2.18-2-.3-3-.87A6.36,6.36,0,0,0,201.25,148.66Z"/><path class="cls-26" d="M205.37,230.23a1.54,1.54,0,0,1-1.27-1.43l.27-2.2c.1-.33.19-.55.19-.55l-.14.16,2.44-19.71s6.74-24.95,6.18-29.31c-.35-2.82-7.6-2-9.57-2.49-3.21-.81-4.57.91-5.42,3.64-.15.49-.28,1-.41,1.55-1.95,8.4,4.21,16.39,3.11,24.87-1,7.91.83,24.6.83,24.6l.09,2.2,6.25.54S207.73,230.71,205.37,230.23Z"/><path class="cls-10" d="M217.09,189.91c-.44-2.89-2.33-11.76-2.33-11.76s-.3-.84-1-3.25c-.27-1-.29-1.93-.58-2.87-.57-1.87-1-1.69-3-1.79a22,22,0,0,0-8.53.92,7.53,7.53,0,0,0-4.83,5.44c-.31,1.68,0,3.46-.33,5.17-.38,2-.54,19.35-3.12,18.91,1.15.2,2.23-.23,3.35-.19a24.81,24.81,0,0,1,3.6.68,47.44,47.44,0,0,0,6.81,1c3.35.18,7.72,1.12,10.81-.63,2.58-1.46,1.3-2.3.3-4.25C217.11,195.1,217.45,192.31,217.09,189.91Z"/><path class="cls-13" d="M205.22,147.54c-2.68-1.46-6.19,1.05-7.4,3.25-1.8,3.31-.53,8.64,0,12.31.42,3.18,1.22,6.45.34,9.65a50.29,50.29,0,0,1-2,4.82c-.85,2.21.3,2.13,2.46,2.12,3.86,0,7.59-.39,11.38-.58,1.2-.06,3,.31,4.05-.18,1.56-.7,1-1.24.57-2.9-1.31-5-3.21-7.77-1.88-13.12.54-2.15,1.41-3.21.3-5.16a35.84,35.84,0,0,0-3.89-5.21c-1-1.23-2.35-4-3.61-4.85A1.74,1.74,0,0,0,205.22,147.54Z"/><path class="cls-5" d="M219.89,160.88q-6,5.76-9.12,8.9c-.69.72-1.25,1.28-1.69,1.69a11.72,11.72,0,0,1-1.79,1.32,6,6,0,0,1-2.2.9h0a6,6,0,0,1-2.36-.12,11.83,11.83,0,0,1-2.13-.66c-.55-.24-1.26-.59-2.15-1q-3.15-1.58-11.52-5.4a11.52,11.52,0,0,1-2.4-1.45l2.79,16.46a3.23,3.23,0,0,0,1.37,2.18,3.27,3.27,0,0,0,2.51.58l30.53-5.17a3.38,3.38,0,0,0,2.75-3.88l-2.79-16.47a11.49,11.49,0,0,1-1.76,2.16Z"/><path class="cls-6" d="M187.25,168.6q8.37,3.83,11.52,5.4c.89.45,1.6.8,2.15,1a11.83,11.83,0,0,0,2.13.66,6,6,0,0,0,2.36.12h.05a6.06,6.06,0,0,0,2.19-.9,11.72,11.72,0,0,0,1.79-1.32c.44-.41,1-1,1.69-1.69q3.09-3.15,9.12-8.9a12.23,12.23,0,0,0,1.68-2,5,5,0,0,0-.07-1,3.21,3.21,0,0,0-1.38-2.18,3.25,3.25,0,0,0-2.5-.58l-30.52,5.17a3,3,0,0,0-2.28,1.49,4.3,4.3,0,0,0-.4,2.85,3,3,0,0,0,.12.47A11.31,11.31,0,0,0,187.25,168.6Z"/><path class="cls-7" d="M186.9,166.51q8.37,3.83,11.52,5.41c.88.45,1.6.79,2.14,1a12.29,12.29,0,0,0,2.13.67,6.07,6.07,0,0,0,2.37.12h0a6.18,6.18,0,0,0,2.2-.89,12.21,12.21,0,0,0,1.79-1.33c.43-.41,1-1,1.69-1.68q3.09-3.15,9.11-8.91a11.46,11.46,0,0,0,1.69-2,5,5,0,0,0-.07-1,3.39,3.39,0,0,0-3.88-2.75l-30.53,5.16a3,3,0,0,0-2.27,1.5,4.2,4.2,0,0,0-.28,3.32A11.72,11.72,0,0,0,186.9,166.51Z"/><path class="cls-26" d="M202.68,148.18c-2.16-.39-3.45,1.35-5.26,5.15s-5.71,12.16-5.64,13.29c.07.93,2.23,2.28,2.84,2.81,1.93,1.65,3.9,3.26,5.79,4.95a30.68,30.68,0,0,1,4.86,4.94c1.14,1.62,1.84,5.64,4.23,2.83,1.33-1.56-5.18-8.91-6.54-10.24-2.16-2.11-5.72-6.54-5.72-6.54s3.53-5.86,5.31-8.91S204.55,148.52,202.68,148.18Z"/><path class="cls-17" d="M202.68,148.18c-2.16-.39-3.45,1.35-5.26,5.15s-5.71,12.16-5.64,13.29c.07.93,2.23,2.28,2.84,2.81,3.44,3,6.83,5.58,9,9.65,1.27-1,3.75-3.05,3.75-3.05l-8.81-10.23a73.23,73.23,0,0,1,4-9.34C204.32,153.4,204.55,148.52,202.68,148.18Z"/><path class="cls-26" d="M202.15,144.4c-1.64-2.31-2.71-6.58-1.61-9.25s3.11-3.1,5.57-1.45,6.12,9,1.87,10.14c-1.08.29-2.27-.08-3.28.48Z"/><path class="cls-15" d="M201.24,131.38c3.08-1.28,7.55-1.42,8.06,1.89.42,2.77-3.34,3.8-5.32,3.42v1.19s-1.71-.34-1.33,1.13a1.28,1.28,0,0,0,1.82.79c-.78.28-1.1,1.49-2.27,1.67-1.5.23-2.3-.51-3-1.71-1.22-2-2-4.58-.52-6.59A6.14,6.14,0,0,1,201.24,131.38Z"/><polygon class="cls-26" points="208.95 137.23 210.89 139.69 209.02 140.59 208.95 137.23"/><path class="cls-27" d="M205.92,230.38a4.8,4.8,0,0,1-4.3-.15l0,1.33,6.25.54S207.74,231,205.92,230.38Z"/><path class="cls-27" d="M190.94,224.54l-.6.6,3.84,5a2.33,2.33,0,0,0,.07-2.26A5,5,0,0,1,190.94,224.54Z"/><path class="cls-15" d="M199.43,134.4c-3.68,1.36-7.38-3.93-3.91-6.43a3.65,3.65,0,0,1,4.88.45c1.45,1.77.64,3.87.76,6Z"/><path class="cls-5" d="M352.62,40.11c-4,.27-7,.52-9.11.73-.71.08-1.27.13-1.7.15a8.54,8.54,0,0,1-1.6-.08,4.41,4.41,0,0,1-1.62-.52h0a4.25,4.25,0,0,1-1.26-1.16,8.82,8.82,0,0,1-.86-1.34c-.19-.38-.43-.9-.72-1.55q-1-2.31-3.87-8.27a8.24,8.24,0,0,1-.66-1.9l-6,10.36a2.35,2.35,0,0,0-.24,1.83,2.29,2.29,0,0,0,1.12,1.47L345.27,51a2.35,2.35,0,0,0,1.83.24,2.29,2.29,0,0,0,1.47-1.12l6-10.36a8.2,8.2,0,0,1-2,.38Z"/><path class="cls-6" d="M331.08,29.4q2.87,6,3.88,8.27c.28.65.52,1.17.71,1.55a8.25,8.25,0,0,0,.87,1.34,4.22,4.22,0,0,0,1.25,1.16h0a4.48,4.48,0,0,0,1.62.52,8.54,8.54,0,0,0,1.6.08c.43,0,1-.07,1.7-.15,2.1-.21,5.14-.46,9.11-.73a8.4,8.4,0,0,0,1.86-.35,3.56,3.56,0,0,0,.43-.59,2.33,2.33,0,0,0,.24-1.84,2.38,2.38,0,0,0-1.11-1.46L334.05,26.07a2.13,2.13,0,0,0-1.94-.22,3,3,0,0,0-1.52,1.38,1.87,1.87,0,0,0-.15.32A8,8,0,0,0,331.08,29.4Z"/><path class="cls-7" d="M331.85,28.09q2.85,6,3.87,8.27c.28.65.52,1.17.71,1.55a8.7,8.7,0,0,0,.87,1.34,4.3,4.3,0,0,0,1.25,1.15l0,0a4.18,4.18,0,0,0,1.62.51,7.77,7.77,0,0,0,1.59.09q.65,0,1.71-.15c2.09-.21,5.13-.46,9.1-.73a8.6,8.6,0,0,0,1.87-.35,4,4,0,0,0,.42-.59,2.29,2.29,0,0,0,.24-1.84A2.33,2.33,0,0,0,354,35.9L334.81,24.75a2.16,2.16,0,0,0-1.94-.22,3.08,3.08,0,0,0-1.52,1.39,1.77,1.77,0,0,0-.15.31A7.48,7.48,0,0,0,331.85,28.09Z"/><path class="cls-4" d="M314.68,185.85c0,.46-4.87.84-10.88.84s-10.87-.38-10.87-.84,4.87-.84,10.87-.84S314.68,185.39,314.68,185.85Z"/><path class="cls-2" d="M297.4,174.1c0,6.53,2.73,11.82,6.1,11.82s6.09-5.29,6.09-11.82Z"/><path class="cls-28" d="M304.7,175c1.84-1,5.42-2.08,6.16-4.55,1.2-4-3.54-3.11-5.53-2.2,1.12-1.08,5.91-3.34,4.78-5.43s-4.7,1.28-4.48,3.1c1.41-2.88,2.29-9.9.34-12.74-1.75-2.52-3.51-.36-3.86,1.89a14.79,14.79,0,0,0,1.39,8.64c-.89-1.36-2.81-4.44-4.79-3,.27,2.7,3.1,5.27,4.27,7.61-1.25-.87-5.24-2-5.06.62.16,2.32,4.78,3,5.65,4.52Z"/><path class="cls-20" d="M304.14,174.2c.34-1.44.6-4.16,1.73-5.27,1.71-1.68,1.54.86.79,1.91,1.77-1.47,4.46-5.71,6.7-6.18,3.35-.7-1.52,3.88-2.06,4.61,1.41-.14,6.4-2.41,6.56-.15.18,2.55-5.84,2.85-7.46,3.43,1.05.62,2.25,1.59,2,2.93-2.16.78-3.1-.32-4.86-1.12a2.7,2.7,0,0,1-4.14.22Z"/><path class="cls-14" d="M304.7,175.33c-.37-.52-3.11-9.08-4-5.32-.94-1.82-3.86-8.08-6.49-5.21s1.22,6.53,4,6.76c-1.24.89-3,2.45-.68,3.2,1.62.52,3.83-.53,5.45-.56Z"/></g></g></g></svg>
